<?xml version="1.0" encoding="UTF-8" standalone="no"?>
<svg width="360px" height="360px" viewBox="0 0 360 360" version="1.1" xmlns="http://www.w3.org/2000/svg" xmlns:xlink="http://www.w3.org/1999/xlink" xmlns:sketch="http://www.bohemiancoding.com/sketch/ns">
    <!-- Generator: Sketch 3.5.2 (25235) - http://www.bohemiancoding.com/sketch -->
    <title>Slice 1</title>
    <desc>Created with Sketch.</desc>
    <defs></defs>
    <g id="Page-1" stroke="none" stroke-width="1" fill="none" fill-rule="evenodd" sketch:type="MSPage">
        <text id="Android-BH" sketch:type="MSTextLayer" font-family="Roboto" font-size="50" font-weight="420" fill="#A9C356">
            <tspan x="88" y="315">Android BH</tspan>
        </text>
        <g id="Group-3" sketch:type="MSLayerGroup" transform="translate(21.000000, 36.000000)" fill="#A9C356">
            <path d="M159.494187,22.9977454 C174.670453,22.9977454 189.044501,25.7880801 201.942002,30.7796787 L220.927836,1.54317227 C221.939329,-0.0263909702 224.043699,-0.472069422 225.613257,0.547177821 C227.18669,1.56642506 227.632367,3.67080245 226.609248,5.2403657 L208.28224,33.4692513 C238.607644,47.4635547 259.263798,74.0957488 259.852866,104.762302 L59.1355071,104.762302 C59.7284512,74.0957488 80.3884806,47.4635547 110.713885,33.4692513 L92.3830015,5.2403657 C91.3637579,3.67080245 91.8094347,1.56642506 93.3789924,0.547177821 C94.9524255,-0.472069422 97.05292,-0.0263909702 98.0721636,1.54317227 L117.054123,30.7796787 C129.947748,25.7919555 144.325672,22.9977454 159.494187,22.9977454 L159.494187,22.9977454 Z M202.879861,53.5131553 C209.254978,53.5131553 214.42483,58.6830253 214.42483,65.0581649 C214.42483,71.4333045 209.254978,76.6031746 202.879861,76.6031746 C196.50862,76.6031746 191.338768,71.4333045 191.338768,65.0581649 C191.338768,58.6830253 196.50862,53.5131553 202.879861,53.5131553 L202.879861,53.5131553 Z M116.112388,53.5131553 C122.487505,53.5131553 127.657357,58.6830253 127.657357,65.0581649 C127.657357,71.4333045 122.487505,76.6031746 116.112388,76.6031746 C109.737271,76.6031746 104.567419,71.4333045 104.567419,65.0581649 C104.567419,58.6830253 109.737271,53.5131553 116.112388,53.5131553 L116.112388,53.5131553 Z" id="Path" sketch:type="MSShapeGroup"></path>
            <path d="M319,199.907968 L319,141.590844 C319,129.197107 308.857945,119.055016 296.460377,119.055016 C284.062809,119.055016 273.916878,129.197107 273.916878,141.590844 L273.916878,200.235607 L274.484143,200.248227 L277.986071,194.208064 L278.948319,194.235477 L278.76445,200.267288 L281.902077,200.427806 L289.071396,194.597527 L290.041357,194.702041 L289.747245,200.272963 L299.415155,195.419502 L300.18984,195.441775 L299.878812,199.587092 L307.816595,196.497941 L308.539885,196.653106 L308.211618,199.954389 L315.632533,197.784231 L316.166381,197.830598 L315.872334,200.599033 L319,199.907968 Z" id="Path" sketch:type="MSShapeGroup"></path>
            <path d="M22.5357477,119.055016 L22.5357477,119.055016 C34.9294401,119.055016 45.0714954,129.197107 45.0714954,141.590844 L45.0714954,231.741906 C45.0714954,244.139518 34.9294401,254.277734 22.5357477,254.277734 C10.1381799,254.277734 2.84217094e-14,244.139518 2.84217094e-14,231.741906 L2.84217094e-14,141.590844 C2.84217094e-14,129.197107 10.1381799,119.055016 22.5357477,119.055016 L22.5357477,119.055016 Z" id="Path" sketch:type="MSShapeGroup"></path>
            <path d="M260.019511,200.127174 L260.019511,118.276048 L58.9727382,118.276048 L58.9727382,217.6531 L62.061797,217.388524 L62.0784378,216.355681 C62.0784378,216.355681 63.8366312,216.09075 66.0802294,214.704975 C68.3238275,213.3192 68.0791038,210.135965 68.0791038,210.135965 L68.7505662,210.144332 L68.767301,209.372756 L69.3247219,209.358202 L69.3220036,209.091105 C69.3220036,209.091105 69.3283629,208.970833 70.0156404,208.449913 C70.7029179,207.928993 71.1740634,207.823958 71.1740634,207.823958 L71.1672612,207.388461 C71.1672612,207.388461 71.4362197,207.333933 72.2799295,206.955946 C73.1236394,206.577959 73.0237829,206.188474 73.0237829,206.188474 L73.0236784,195.202229 L72.3303284,194.859167 L72.3581419,194.351318 L71.656636,194.140106 L71.0456808,194.195732 L71.0456808,193.761076 L70.4626436,193.788889 L70.4513509,192.856212 L73.6347382,192.069082 L73.6347382,191.495256 L74.4125742,191.125427 L75.9951799,153.938071 L78.9981137,148.007366 L79,148.003641 L79.0018436,148 L82.0048201,153.938071 L83.5874258,191.125427 L84.3652618,191.495256 L84.3652618,192.069082 L87.5486491,192.856212 L87.5373564,193.788889 L86.9543192,193.761076 L86.9543192,194.195732 L86.343364,194.140106 L85.6418581,194.351318 L85.6696716,194.859167 L84.9763216,195.202229 L84.9762171,206.188474 C84.9762171,206.188474 84.8763606,206.577959 85.7200705,206.955946 C86.5637803,207.333933 86.8327388,207.388461 86.8327388,207.388461 L86.8259366,207.823958 C86.8259366,207.823958 87.2970821,207.928993 87.9843596,208.449913 C88.6716371,208.970833 88.6779964,209.091105 88.6779964,209.091105 L88.6752781,209.358202 L89.232699,209.372756 L89.2494338,210.144332 L89.9208962,210.135965 C89.9208962,210.135965 89.6761725,213.3192 91.9197706,214.704975 C94.1633688,216.09075 95.9215622,216.355681 95.9215622,216.355681 L95.938203,217.388524 L99.6334422,217.705019 L99.6910951,220.528402 L103.877936,221.603781 C112.324964,203.261051 118.523987,197.47605 123.522761,199.267959 C123.42548,199.248543 124.124205,199.268917 125.249344,200.19547 C126.853667,201.516633 128.57602,204.189102 130.268832,207.635204 C143.137638,188.414969 153.023741,182.330466 161.210154,184.621039 C161.025911,184.592336 162.349241,184.622454 164.480163,185.992167 C168.74082,188.730833 175.895793,195.497361 181.45571,203.785734 L183.812512,165.47796 L194.300126,160 L198.308556,170.953043 L191.105329,214.755439 C193.593013,217.652188 198.443873,222.566069 205.039127,225.80442 L205.577887,225.80442 L202,207.482138 L202.463243,207.482138 L202.294904,206.037005 L203.401861,206.122429 L203.18182,204.425583 L205.32804,204.705998 L205.083459,203.072024 L208.361177,203.397543 L208.005197,201.503426 L208.384129,201.350225 L213.36109,202.128831 L213.074366,199.976555 L213.487536,199.815073 L219.194721,201.009378 L218.810781,198.400712 L219.430179,198.362697 L226.522763,200.268358 L226.143424,196.866845 L226.828022,196.885799 L235.001068,199.869793 L234.65109,195.948816 L235.437829,195.902449 L245.109693,200.71372 L244.748243,194.981529 L245.633171,194.859133 L252.776242,200.523646 L255.50906,200.399108 L255.284879,194.32607 L256.236303,194.279703 L260.019511,200.127174 Z" id="Path" sketch:type="MSShapeGroup"></path>
        </g>
    </g>
</svg>