<svg xmlns="http://www.w3.org/2000/svg" width="184" height="36" viewBox="0 0 184 36">
    <g fill="none" fill-rule="evenodd">
        <path d="M-17-18h219v72H-17z"/>
        <g transform="translate(.99)">
            <path fill="#333" d="M12.587 35.548L7.22 21.54l-1.705 3.213v10.795H0V.402h5.516v15.313L12.737.402h5.516l-7.672 15.665 7.672 19.481h-5.666zM20.309.402h5.516v27.113c0 2.51 1.103 3.414 2.858 3.414 1.755 0 2.859-.904 2.859-3.414V.402h5.215v26.761c0 5.624-2.808 8.837-8.224 8.837s-8.224-3.213-8.224-8.837V.402zm19.507 8.435C39.816 3.213 42.574 0 47.939 0c5.366 0 8.124 3.213 8.124 8.837V9.94h-5.215V8.485c0-2.51-1.003-3.464-2.758-3.464-1.755 0-2.758.954-2.758 3.464 0 7.23 10.781 8.586 10.781 18.628 0 5.623-2.808 8.837-8.224 8.837s-8.224-3.214-8.224-8.837v-2.159h5.215v2.51c0 2.51 1.104 3.415 2.859 3.415s2.858-.904 2.858-3.415c0-7.23-10.781-8.585-10.781-18.627zM59.022.402h5.516v27.113c0 2.51 1.103 3.414 2.858 3.414 1.755 0 2.858-.904 2.858-3.414V.402h5.215v26.761c0 5.624-2.808 8.837-8.224 8.837-5.415 0-8.223-3.213-8.223-8.837V.402zM79.23 35.548V.402h8.726c5.516 0 8.223 3.062 8.223 8.686v17.774c0 5.623-2.707 8.686-8.223 8.686H79.23zm8.625-30.125h-3.109v25.104h3.11c1.754 0 2.807-.904 2.807-3.414V8.837c0-2.51-1.053-3.414-2.808-3.414zm24.02-5.021l5.616 35.146h-5.566l-.953-6.376h-6.77l-.952 6.376h-5.065L103.802.402h8.073zm-4.312 6.226l-2.658 17.774h5.315l-2.657-17.774zM127.67.402l4.062 24.954 3.76-24.954h7.673v35.146h-5.215V10.343l-3.811 25.205h-5.215l-4.112-24.853v24.853h-4.814V.402h7.672zm31.742 0l5.617 35.146h-5.567l-.952-6.376h-6.77l-.953 6.376h-5.065L151.34.402h8.073zm-4.312 6.226l-2.658 17.774h5.315l-2.657-17.774z"/>
            <ellipse cx="174.025" cy="9" fill="#F05" rx="8.995" ry="9"/>
        </g>
    </g>
</svg>
