<svg xmlns="http://www.w3.org/2000/svg" viewBox="0 0 492.49 278.94"><defs><style>.cls-1{fill:#fff;}</style></defs><title>logo-monochrome</title><g id="Layer_2" data-name="Layer 2"><g id="Camada_1" data-name="Camada 1"><path class="cls-1" d="M140.69.73a5.2,5.2,0,0,0-1.84,7.13l22.63,38.26A140.91,140.91,0,0,0,94.28,140a25.82,25.82,0,0,1,7.71,2.51c1-.48,2-.94,3-1.37a49.67,49.67,0,0,1,12.73-3.34c13.29-1.74,22.12,2.33,27.19,6.05l.9.69a48.06,48.06,0,0,1,5.72-4.88,40.37,40.37,0,0,1,18.64-7.35l.85-.1c.06-.82.12-1.69.2-2.6a61.48,61.48,0,0,1,1.95-11.48,39.44,39.44,0,0,1,6.9-14,30.16,30.16,0,0,1,20.38-11.38c10.64-1.42,17.92,2.08,22.15,5.26.31.23.6.47.9.7a31.7,31.7,0,0,1,10,14,44.83,44.83,0,0,1,2.23,9.22c.36,1,.66,2,.94,3.05a27,27,0,0,1,14.18,2.86,47.82,47.82,0,0,1,25.89-4.61,39.72,39.72,0,0,1,11.43,2.93q2.07-2.1,4.31-4a50,50,0,0,1,26.1-11.31,42.66,42.66,0,0,1,24.63,3.71c-.09-.91-.13-1.83-.13-2.75a29.73,29.73,0,0,1,4.15-15.16A35.38,35.38,0,0,1,350.66,92,141.39,141.39,0,0,0,320,57.82a139.64,139.64,0,0,0-17-11.7l0,0a2.61,2.61,0,0,0-.28-.17L325.38,7.66A5.21,5.21,0,0,0,324.18,1l-.37-.25a5.22,5.22,0,0,0-7.16,1.83L293.79,41.2a141,141,0,0,0-123.09,0l-.15-.25-.11,0L147.58,2.36A5.14,5.14,0,0,0,146.39,1,5.21,5.21,0,0,0,140.69.73ZM294.85,66.64a13.55,13.55,0,1,1-13.54,13.55A13.48,13.48,0,0,1,294.85,66.64ZM172,66.64a13.54,13.54,0,1,1-13.54,13.55A13.46,13.46,0,0,1,172,66.64Z"/><path class="cls-1" d="M413.74,202.46a13.32,13.32,0,0,1,.82,3.17,34.26,34.26,0,0,1,2.54-3.12c.12-.14.26-.26.39-.39a16.07,16.07,0,0,1-4.44-1.11A14.82,14.82,0,0,1,413.74,202.46Z"/><path class="cls-1" d="M44,191.34a8.33,8.33,0,0,1,0,1,96.35,96.35,0,0,0-11.76,4.41A77,77,0,0,0,18,205,52.14,52.14,0,0,0,6.52,216.28a24.29,24.29,0,0,0-4.88,14.64,21,21,0,0,0,2,8.81,24.44,24.44,0,0,0,5.16,7.39c.53.51,1.07,1,1.63,1.45A23.42,23.42,0,0,0,16,251.82,17.83,17.83,0,0,0,25.17,253a39,39,0,0,0,13.15-4.28,47.13,47.13,0,0,0,8.56-5.82c0,.12,0,.23.07.35l.18-.15a12.35,12.35,0,0,0,3,6.17,10.89,10.89,0,0,0,.92.88c2.28,1.77,5.27,2.43,8.9,2a10.8,10.8,0,0,0,7.88-4.85,25.53,25.53,0,0,0,3.64-8.39,48.12,48.12,0,0,0,1.34-9.14c.15-3,.23-5.43.23-7.28,0-4.14-.1-8.48-.31-12.9s-.61-8.89-1.22-13.24a104.12,104.12,0,0,0-2.61-12.81,60.13,60.13,0,0,0-4.49-11.67A21.53,21.53,0,0,0,59.31,165l-.79-.66a26.53,26.53,0,0,0-5.93-3.56,28.3,28.3,0,0,0-8.19-2.18,35.78,35.78,0,0,0-8.59.09,37.93,37.93,0,0,0-10.13,3,49,49,0,0,0-10.11,5.95,34.13,34.13,0,0,0-7.92,8.46,19.25,19.25,0,0,0-3.31,10.7,7.85,7.85,0,0,0,2.86,6.43A9,9,0,0,0,14,194.85a14.88,14.88,0,0,0,6.34-2.35c1.64-1.1,3.32-2.32,5-3.63a47,47,0,0,1,4.89-3.39,14.37,14.37,0,0,1,5.65-1.85c2.33-.3,4.11.08,5.41,1.15a4,4,0,0,1,.63.53C43.3,186.7,44,188.67,44,191.34ZM9.05,220.12a26.35,26.35,0,0,0-3,9.76,18.3,18.3,0,0,0,.23,5,20.87,20.87,0,0,0,1.44,4.73,18.37,18.37,0,0,0,2.6,4.26A30.05,30.05,0,0,0,14,247.58l-.1.16A16,16,0,0,1,6,240.48a15.28,15.28,0,0,1-1.6-5.3,21.81,21.81,0,0,1,.14-5.48,27.64,27.64,0,0,1,3.68-10.06,30.45,30.45,0,0,1,7-8l.13.15A30.74,30.74,0,0,0,9.05,220.12Zm19.8,3.48h-.2a5.8,5.8,0,0,1,.57-2.35,14.84,14.84,0,0,1,1.21-2.08,24.06,24.06,0,0,1,3.14-3.62,23.46,23.46,0,0,1,3.83-2.89,9.11,9.11,0,0,1,4.53-1.52v.19a11.68,11.68,0,0,0-2,1.26c-.3.22-.6.45-.88.69s-.58.47-.86.72c-1.11,1-2.2,2-3.28,3s-2.16,2-3.21,3.08c-.51.53-1.05,1.06-1.53,1.63A8.45,8.45,0,0,0,28.85,223.6Zm10.73,0A16.93,16.93,0,0,1,33.31,226a5.44,5.44,0,0,1-2.6-.21c-.16-.06-.44-.16-.44-1.08a5.42,5.42,0,0,1,1.39-3.29,25,25,0,0,1,4.19-4.08,27.88,27.88,0,0,1,5.23-3.21,18.14,18.14,0,0,1,3.62-1.32l.33,7.34Q42.6,221.77,39.58,223.58Zm-8-57.88a36.14,36.14,0,0,0-5,1.61,46.65,46.65,0,0,0-4.76,2.21A72.4,72.4,0,0,0,13,175.16l-.12-.16c.66-.58,1.32-1.17,2-1.74s1.37-1.11,2.09-1.63,1.42-1.06,2.16-1.55,1.48-1,2.23-1.48a39.87,39.87,0,0,1,9.87-4.4,25.83,25.83,0,0,1,11.05-.79,23.52,23.52,0,0,1,10.32,4.43A33.09,33.09,0,0,1,60,176a48.71,48.71,0,0,1,4.8,9.71,62,62,0,0,1,3.88,20.87l-.2,0a69.64,69.64,0,0,0-1.84-10.33,72.76,72.76,0,0,0-3.27-10,50.53,50.53,0,0,0-4.9-9.25,31.78,31.78,0,0,0-7.08-7.64,21.91,21.91,0,0,0-9.45-4.18A25.42,25.42,0,0,0,31.55,165.7Z"/><path class="cls-1" d="M91.57,150.17a11.9,11.9,0,0,0-8.63,5.09,25.81,25.81,0,0,0-3.8,8.91A46.78,46.78,0,0,0,78,173.94q-.08,4.76-.07,7.8c0,3.77.08,7.57.23,11.3s.22,7.5.22,11.29v7.15c0,1.2,0,2.84-.08,4.9s0,4.48.16,7,.41,5.09.77,7.65A30.09,30.09,0,0,0,81,238.21a13.92,13.92,0,0,0,3.6,5.3l.4.31A7.87,7.87,0,0,0,90.72,245a11.89,11.89,0,0,0,5.69-2.25,17.82,17.82,0,0,0,3.92-4.11,21.6,21.6,0,0,0,2.61-5.27,34.38,34.38,0,0,0,1.43-5.67,58,58,0,0,0,.94-6c.2-2,.35-3.92.46-5.89v-8.82q0-3.51-.08-7c0-2.26-.08-4.49-.08-6.71a13.5,13.5,0,0,1,.87-3.65,50.2,50.2,0,0,1,2.31-5.68A39,39,0,0,1,111.7,179c1-1.43,1.48-1.62,1.47-1.62a2.08,2.08,0,0,1,1.79.41l0,0a1.4,1.4,0,0,1,.22.16,4.24,4.24,0,0,1,1.24,2.1,17.18,17.18,0,0,1,.61,3.56c.1,1.4.15,2.64.15,3.8a80,80,0,0,1-.51,9c-.36,3.09-.76,6.19-1.2,9.21s-.86,6.3-1.21,9.34a83,83,0,0,0-.54,9.42c0,1.17.08,2.82.23,4.9a36.07,36.07,0,0,0,1,6.36,17.24,17.24,0,0,0,2.51,5.65,6.34,6.34,0,0,0,1.08,1.21,5.65,5.65,0,0,0,4.36,1.1,13.11,13.11,0,0,0,8.43-5.07,37.87,37.87,0,0,0,5.71-10,97.06,97.06,0,0,0,4-12.59c1.11-4.47,2-8.9,2.67-13.15s1.15-8.12,1.45-11.57.46-6.11.46-7.91c0-3.48-.16-7.39-.46-11.64a41.84,41.84,0,0,0-2.61-12.13,20.17,20.17,0,0,0-6.66-9c-3.21-2.35-7.65-3.17-13.21-2.44a30.25,30.25,0,0,0-7.77,2,31.35,31.35,0,0,0-6.17,3.43,32.82,32.82,0,0,0-5,4.42q-.75.84-1.44,1.68c0-.11-.09-.23-.13-.35l-.13.15-.21-.57a19.93,19.93,0,0,0-2.31-4.36,14.34,14.34,0,0,0-2.39-2.62c-.23-.18-.45-.36-.69-.53A6.92,6.92,0,0,0,91.57,150.17Zm3.09,4.72a7.37,7.37,0,0,0-4.09.55,8.88,8.88,0,0,0-3.23,2.41,7.48,7.48,0,0,0-1.1,1.64,13.46,13.46,0,0,0-.65,1.92c-.45,1.33-.72,2.73-1,4.11-.55,2.79-1,5.59-1.43,8.44l-.31,2.12-.25,2.14c-.18,1.43-.31,2.86-.43,4.3-.49,5.73-.74,11.5-.9,17.27s-.23,11.55-.38,17.33h-.2c-.16-5.78-.33-11.56-.4-17.34s0-11.58.31-17.37.65-11.63,2.08-17.34A42.87,42.87,0,0,1,84,160.85a14.45,14.45,0,0,1,.91-2.11,8.32,8.32,0,0,1,1.47-1.84,9.56,9.56,0,0,1,3.94-2.31,7.23,7.23,0,0,1,4.44.11ZM125,149.68a12.56,12.56,0,0,1,6.18.42,12,12,0,0,1,2.88,1.4,16.06,16.06,0,0,1,2.44,2.05,21.3,21.3,0,0,1,3.48,5.09,34.74,34.74,0,0,1,2.06,5.61,44.21,44.21,0,0,1,1.12,5.75,49.77,49.77,0,0,1,.18,11.57h-.2a97,97,0,0,0-1.49-11.28,44.5,44.5,0,0,0-3.43-10.79,19.76,19.76,0,0,0-3.09-4.71,13.3,13.3,0,0,0-2.07-1.9,12,12,0,0,0-2.46-1.36,11.07,11.07,0,0,0-2.71-.72,12.49,12.49,0,0,0-2.82-.1,21.06,21.06,0,0,0-5.52,1.21l-.06-.18A16.79,16.79,0,0,1,125,149.68Z"/><path class="cls-1" d="M207.36,228.12a9.8,9.8,0,0,0,6.84-3.88,18.6,18.6,0,0,0,3.09-6.64,35.15,35.15,0,0,0,1-7.15q.15-3.49.15-6c0-6-.18-12-.53-17.84s-.53-11.66-.53-17.6c0-7.32.28-14.72.82-22s.84-14.91.84-22.3c0-2.25-.08-4.68-.24-7.23a26.42,26.42,0,0,0-1.46-7.41,12.14,12.14,0,0,0-3.89-5.52c-2-1.45-4.65-2-8-1.53a11.08,11.08,0,0,0-7.63,4.1,20,20,0,0,0-3.5,7.14,43.5,43.5,0,0,0-1.35,7.93c-.2,2.63-.35,4.93-.45,6.87L191.5,148l-.25-.23v0c-.33-.31-.67-.6-1-.89a21.75,21.75,0,0,0-3.59-2.29,19.21,19.21,0,0,0-11.44-2,21.26,21.26,0,0,0-9.8,3.83,29.48,29.48,0,0,0-7.2,7.55,44.13,44.13,0,0,0-4.85,9.69,84.21,84.21,0,0,0-3,10.46,86.87,86.87,0,0,0-1.62,10.35c-.3,3.33-.46,6.32-.46,8.9a60.18,60.18,0,0,0,1.63,12.83,57.11,57.11,0,0,0,5,13.77,34.65,34.65,0,0,0,8.54,10.85l.46.36a16.32,16.32,0,0,0,12.3,3A25,25,0,0,0,189,228.34a35.25,35.25,0,0,0,6.59-7.17c0,.11.11.21.17.32l.08-.12a15.59,15.59,0,0,0,2.83,4c.28.29.58.56.88.82A10.15,10.15,0,0,0,207.36,228.12ZM164.92,152.9a37.88,37.88,0,0,0-7.47,11.81,68.41,68.41,0,0,0-4.1,13.44,74.81,74.81,0,0,0-1.54,14h-.2a51.07,51.07,0,0,1,.22-14.29,61.38,61.38,0,0,1,1.45-7.06,60.29,60.29,0,0,1,2.37-6.85,44.56,44.56,0,0,1,3.43-6.47,30.44,30.44,0,0,1,4.74-5.66,22,22,0,0,1,6.17-4.07,17.83,17.83,0,0,1,7.1-1.45l0,.19a20.19,20.19,0,0,0-6.64,2.18A22.52,22.52,0,0,0,164.92,152.9Zm25.72,43.53c-.66.81-1.4,1.69-2.22,2.62a31.19,31.19,0,0,1-3.09,3.1,18.61,18.61,0,0,1-3.3,2.33,9,9,0,0,1-3.16,1.1c-.66.08-1.53,0-2.37-1.42a19.4,19.4,0,0,1-2.14-5.59,47.73,47.73,0,0,1-1.09-6.81c-.2-2.28-.3-4-.3-5.19s.08-2.8.22-4.58a22.79,22.79,0,0,1,.89-4.77,9.31,9.31,0,0,1,1.94-3.5,4.51,4.51,0,0,1,3-1.49,5.63,5.63,0,0,1,3.47.6,12.76,12.76,0,0,1,3.42,2.6,18.29,18.29,0,0,1,2.69,3.68c.7,1.29,1.33,2.48,1.87,3.59-.08,2.23-.07,4.42,0,6.53s.15,4.48.15,6.73ZM193.07,186l-.15,0a10.8,10.8,0,0,0-1-4.68,24.28,24.28,0,0,0-2.3-4.24,20.23,20.23,0,0,0-3.35-3.63,13.72,13.72,0,0,0-4.22-2.6l0-.15a13.54,13.54,0,0,1,4.63,2.17,21.3,21.3,0,0,1,3.82,3.47,13.05,13.05,0,0,1,2.76,4.47,8.21,8.21,0,0,1,.42,2.65A5.4,5.4,0,0,1,193.07,186Zm8.19-78a3.75,3.75,0,0,0-1.06,1.15L200,109a3.87,3.87,0,0,1,1.08-1.26,8.41,8.41,0,0,1,1.37-.92,11.55,11.55,0,0,1,3.08-1.15,8.24,8.24,0,0,1,3.32-.08,5.4,5.4,0,0,1,3,1.62,6,6,0,0,1,1,1.42l.35.76.31.76a29.34,29.34,0,0,1,1,3.15,52.08,52.08,0,0,1,1.12,6.45,128.57,128.57,0,0,1,.74,13c.06,4.34,0,8.67-.11,13s-.22,8.66-.4,13-.39,8.63-.6,12.94-.42,8.62-.54,12.93c0,2.15-.08,4.31,0,6.46s.11,4.31.28,6.47l-.2,0a79.12,79.12,0,0,1-1.36-12.94c-.17-4.34-.14-8.68,0-13s.28-8.65.54-13,.53-8.63.73-12.94.36-8.62.4-12.93a129,129,0,0,0-.45-12.9,54,54,0,0,0-1-6.35,26.8,26.8,0,0,0-.85-3.07l-.27-.75-.31-.73a5.85,5.85,0,0,0-.8-1.28,4.74,4.74,0,0,0-2.57-1.52,7.8,7.8,0,0,0-3.12,0,11.08,11.08,0,0,0-3,1A8.52,8.52,0,0,0,201.26,108Z"/><path class="cls-1" d="M239.3,227.14a11,11,0,0,0,6.75-3.39,20,20,0,0,0,3.84-6,32.89,32.89,0,0,0,2-6.86,52.76,52.76,0,0,0,.76-5.9,51.64,51.64,0,0,0,.32-6.53q0-3.94.15-8.38c0-2.8.08-5.45.22-7.89A33.17,33.17,0,0,1,254,177a36.14,36.14,0,0,1,2-5.47,27.19,27.19,0,0,1,3-5.09,20.32,20.32,0,0,1,3.78-3.9,9.92,9.92,0,0,1,4.47-1.95,4.57,4.57,0,0,1,2.14,0c.88.23,1.75.49,2.7.78s2.06.54,3.09.77a10.76,10.76,0,0,0,4.36-.08,16.51,16.51,0,0,0,8.8-4.32,11.52,11.52,0,0,0,3.58-9.51,14.72,14.72,0,0,0-2.33-7.81,15,15,0,0,0-3-3.26,14.77,14.77,0,0,0-2.17-1.38,20,20,0,0,0-7.09-2.07,28.35,28.35,0,0,0-7.68.27,24.32,24.32,0,0,0-12.9,6.15,44.85,44.85,0,0,0-5.71,6.73l-.06-.25,0-.16-.16.21c0-.08,0-.16,0-.25a24.51,24.51,0,0,0-1.87-5.33,12.63,12.63,0,0,0-3.25-4.16A7.33,7.33,0,0,0,240,135.5a14,14,0,0,0-8.62,4.07,20.86,20.86,0,0,0-4.5,7.33,31.84,31.84,0,0,0-1.77,8.47c-.21,2.77-.31,5.34-.31,7.63,0,3.6.13,7.23.38,10.81s.43,7.08.53,10.51c0,1.1,0,2.56-.08,4.36s0,3.91,0,6.11.15,4.5.3,7,.38,4.9.69,7.34A57.9,57.9,0,0,0,228,216a25.3,25.3,0,0,0,2.26,6,11.89,11.89,0,0,0,3,3.68,4.56,4.56,0,0,0,.42.31A8,8,0,0,0,239.3,227.14ZM261.55,140a21.42,21.42,0,0,1,4.37-2,27.51,27.51,0,0,1,9.55-1.34,22.66,22.66,0,0,1,4.88.67,13.5,13.5,0,0,1,4.55,2.12,10.69,10.69,0,0,1,3.25,3.88,9.68,9.68,0,0,1,1,4.81l-.19,0a13.68,13.68,0,0,0-2-4.13,11.06,11.06,0,0,0-3.18-3,19.94,19.94,0,0,0-8.42-2.85,26.24,26.24,0,0,0-9.16.72,20.49,20.49,0,0,0-4.35,1.61,12.65,12.65,0,0,0-3.7,2.8l-.15-.12A12.25,12.25,0,0,1,261.55,140Zm-31,12.62a60.76,60.76,0,0,0-1.34,8.85,90.12,90.12,0,0,0-.4,9h-.2a78.43,78.43,0,0,1-.38-9.07,63.52,63.52,0,0,1,.78-9.11,40.13,40.13,0,0,1,1-4.52,16.24,16.24,0,0,1,1.94-4.32,10.18,10.18,0,0,1,3.46-3.38,6.91,6.91,0,0,1,4.65-.82v.19a8.5,8.5,0,0,0-3.88,1.77,11.05,11.05,0,0,0-2.56,3.26A34.13,34.13,0,0,0,230.6,152.57Z"/><path class="cls-1" d="M320.83,217.85a31.92,31.92,0,0,0,7.76-2c.12-1.59.29-3,.49-4.34a17.66,17.66,0,0,1,1.27-4.63l.14-.28c1.34-2.63,3.75-4.8,7.37-6.64a53.31,53.31,0,0,1,8.14-3.28l2.17-.66a65,65,0,0,0,4.75-13.34,95.77,95.77,0,0,0,2.53-16.94,64.57,64.57,0,0,0-1.08-15.85,49.39,49.39,0,0,0-5.32-15,31,31,0,0,0-8.33-9.62c-.49-.36-1-.71-1.51-1-4.31-2.78-9.55-3.79-15.58-3a30.94,30.94,0,0,0-16.18,7,46,46,0,0,0-11,13.6,66.57,66.57,0,0,0-6.24,17,80.79,80.79,0,0,0-2,17.35,62.39,62.39,0,0,0,2,15.64,45.71,45.71,0,0,0,6.12,14,31.69,31.69,0,0,0,7.07,7.63,29.88,29.88,0,0,0,2.84,1.9A22.38,22.38,0,0,0,320.83,217.85Zm7.62-71.42a22.05,22.05,0,0,1,3.41,5.08,40.46,40.46,0,0,1,2.33,5.67,47.11,47.11,0,0,1,1.54,5.94,52.19,52.19,0,0,1,.76,6.12,44.31,44.31,0,0,1-.15,6.2,30.64,30.64,0,0,1-1.25,6.12,22.39,22.39,0,0,1-2.65,5.67,16,16,0,0,1-4.31,4.41l-.14-.14a21.13,21.13,0,0,0,5.61-10.32,40.19,40.19,0,0,0,.93-11.83,60.08,60.08,0,0,0-1.83-11.77,53.73,53.73,0,0,0-1.81-5.69,28.44,28.44,0,0,0-2.6-5.35Zm-6.13,2.51a2.62,2.62,0,0,1,2.46,1.2,15.2,15.2,0,0,1,2.56,4.85,43,43,0,0,1,1.66,7,47.76,47.76,0,0,1,.58,7,73.9,73.9,0,0,1-.44,7.68,44.56,44.56,0,0,1-1.43,7.5,19.07,19.07,0,0,1-2.48,5.48,3.64,3.64,0,0,1-2.6,1.86c-.55.07-1.4,0-2.44-1.25a17,17,0,0,1-2.66-5,42,42,0,0,1-1.8-7.27,46.38,46.38,0,0,1-.66-7.51,45.12,45.12,0,0,1,.58-6.54,50.39,50.39,0,0,1,1.66-7.28,23,23,0,0,1,2.59-5.73C321.06,149.11,322,149,322.32,148.94Zm-26.54,4.66a64.51,64.51,0,0,0-2.68,18.54,149.73,149.73,0,0,0,1.25,18.79l-.19,0a95.75,95.75,0,0,1-2.61-18.82,67.16,67.16,0,0,1,.38-9.61,56.25,56.25,0,0,1,2-9.5,46.45,46.45,0,0,1,3.87-9,41.28,41.28,0,0,1,5.82-7.82A42.85,42.85,0,0,1,311,130a48,48,0,0,1,8.5-4.34l.09.18a59.65,59.65,0,0,0-8,5,45.69,45.69,0,0,0-6.86,6.4A44.06,44.06,0,0,0,295.78,153.6Z"/><path class="cls-1" d="M376.82,115.49a12,12,0,0,0-7.89,4.38,26.38,26.38,0,0,0-4.55,8.42,59.08,59.08,0,0,0-2.5,10.42c-.56,3.65-.95,7.29-1.15,10.83s-.31,6.76-.31,9.8v12.55c0,2.59.1,5.41.3,8.37s.51,6.11.92,9.27c.18,1.43.42,2.79.7,4.1.64,0,1.27.08,1.9.17.28,0,.55.09.82.15-.69-5.75-1.06-11.54-1.23-17.33-.18-6.21-.14-12.44.2-18.65a151.67,151.67,0,0,1,2.13-18.53,76.84,76.84,0,0,1,2.21-9.07,39.56,39.56,0,0,1,3.7-8.56l.16.11a49.3,49.3,0,0,0-2.87,8.76l-.51,2.24-.43,2.26c-.12.76-.26,1.51-.39,2.27l-.35,2.27c-.4,3-.79,6.09-1,9.16s-.52,6.12-.67,9.2-.31,6.15-.4,9.24-.14,6.17-.21,9.26c-.07,5.79-.05,11.59,0,17.44a12.51,12.51,0,0,1,2.89,1,10.93,10.93,0,0,1,4.18,3.71,10.39,10.39,0,0,1,1.38,3.27,13.72,13.72,0,0,1,4.26-2.92,36.43,36.43,0,0,1,4.73-1.79l1.36-.39c.41-.9.79-1.82,1.13-2.81A53.42,53.42,0,0,0,387.62,184c.45-3.5.78-7,1-10.46s.3-6.59.3-9.5,0-5.12.15-6.8c.1-1.51.15-3.07.15-4.65v-4.48q0-2.61-.15-8a66.55,66.55,0,0,0-1.25-11,33.59,33.59,0,0,0-3.34-9.67,9.08,9.08,0,0,0-2.17-2.66A7.4,7.4,0,0,0,376.82,115.49Z"/><path class="cls-1" d="M374,91.31a17.58,17.58,0,0,0-4.33,2.57,14.59,14.59,0,0,0-3.32,3.87,10.18,10.18,0,0,0-1.44,5.29,6.48,6.48,0,0,0,2.17,5.29,7.1,7.1,0,0,0,.69.44,10.29,10.29,0,0,0,6.35,1,15.92,15.92,0,0,0,4.52-1.37,18.85,18.85,0,0,0,4.44-2.82,16.5,16.5,0,0,0,3.42-3.91A9.53,9.53,0,0,0,388,96.6a6.31,6.31,0,0,0-2.07-5.16,5.65,5.65,0,0,0-1.08-.61C381.71,89.45,378,89.64,374,91.31Zm-2.54,16.08a5.35,5.35,0,0,1-3.27-2.09,5.76,5.76,0,0,1-1.1-3.75,8.47,8.47,0,0,1,1.3-3.69A9.61,9.61,0,0,1,369,97l.6-.77c.41-.51.89-1,1.34-1.42L371,95c-.39,1.42-.93,2.54-1.26,3.67a12.57,12.57,0,0,0-.69,3,6.23,6.23,0,0,0,.41,2.7c.06.24.22.44.31.7a7.28,7.28,0,0,0,.44.69,8.25,8.25,0,0,0,1.29,1.42Z"/><path class="cls-1" d="M421,110.48a21.26,21.26,0,0,0-9.8,3.83,29.51,29.51,0,0,0-7.21,7.55,44.55,44.55,0,0,0-4.84,9.69,82.52,82.52,0,0,0-3,10.46,84.28,84.28,0,0,0-1.62,10.35c-.31,3.32-.46,6.32-.46,8.9a60.1,60.1,0,0,0,1.63,12.83,57.09,57.09,0,0,0,5,13.77,37.35,37.35,0,0,0,4.27,6.51,12.11,12.11,0,0,1,2.22.82,13.14,13.14,0,0,1,4.2,3.26,14.39,14.39,0,0,1,1.73,2.56,16.07,16.07,0,0,0,4.44,1.11,32.9,32.9,0,0,1,7.59-6,20.85,20.85,0,0,1,10.59-2.92,15.07,15.07,0,0,1,2.14.17,33.26,33.26,0,0,0,3.57-4.35c.05.11.12.21.17.32l.09-.12a15.55,15.55,0,0,0,2.82,4c.29.29.58.56.89.82a10.11,10.11,0,0,0,7.78,1.91,9.8,9.8,0,0,0,6.84-3.88,18.52,18.52,0,0,0,3.1-6.64,35.35,35.35,0,0,0,1-7.15q.15-3.5.15-6c0-5.95-.18-11.95-.53-17.84-.35-5.74-.53-11.66-.53-17.6,0-7.35.28-14.75.82-22s.83-14.89.83-22.3c0-2.26-.08-4.69-.23-7.23a26.42,26.42,0,0,0-1.46-7.4,12.17,12.17,0,0,0-3.9-5.53c-2-1.45-4.65-2-8-1.53a11.1,11.1,0,0,0-7.64,4.1,20,20,0,0,0-3.49,7.14,42.79,42.79,0,0,0-1.35,7.93c-.2,2.63-.35,4.93-.45,6.87l-1.05,18.88-.26-.23v0c-.33-.31-.67-.6-1-.89a21.34,21.34,0,0,0-3.59-2.29A19.18,19.18,0,0,0,421,110.48Zm-14.63,15.1A39.56,39.56,0,0,0,402.5,134a66.6,66.6,0,0,0-3,18.33,95.51,95.51,0,0,0,1.11,18.58,80.76,80.76,0,0,0,2,9.11,52,52,0,0,0,3.27,8.72l-.17.09a41.79,41.79,0,0,1-4.1-8.52,66.91,66.91,0,0,1-2.51-9.15,82.1,82.1,0,0,1-1.33-9.4,91.36,91.36,0,0,1-.21-9.51,72.24,72.24,0,0,1,1-9.49,53.41,53.41,0,0,1,2.51-9.25,37,37,0,0,1,4.43-8.51,24.61,24.61,0,0,1,6.83-6.59l.12.15A27.27,27.27,0,0,0,406.35,125.58Zm40.74-49a9,9,0,0,1,1.36-.92,11.72,11.72,0,0,1,3.09-1.14,8.43,8.43,0,0,1,3.32-.09,5.4,5.4,0,0,1,3,1.62,6.22,6.22,0,0,1,1,1.43l.35.75.31.77a29.17,29.17,0,0,1,1,3.14,52.74,52.74,0,0,1,1.12,6.45,128.77,128.77,0,0,1,.74,13c.06,4.33,0,8.67-.11,13s-.22,8.65-.4,13-.39,8.64-.6,13-.42,8.62-.54,12.92c0,2.16-.09,4.31-.06,6.47s.11,4.31.29,6.46l-.2,0a80.36,80.36,0,0,1-1.37-12.95c-.16-4.34-.13-8.67,0-13s.29-8.66.55-13,.53-8.63.73-12.94.36-8.63.4-12.94a129,129,0,0,0-.46-12.9,53.84,53.84,0,0,0-.95-6.34,26.41,26.41,0,0,0-.85-3.08l-.28-.74-.3-.73a6,6,0,0,0-.8-1.28,4.74,4.74,0,0,0-2.57-1.52,7.8,7.8,0,0,0-3.12,0,11.06,11.06,0,0,0-3,1,8.52,8.52,0,0,0-1.36.83A3.87,3.87,0,0,0,446.19,78l-.18-.09A4.09,4.09,0,0,1,447.09,76.62Zm-10.67,87.7c-.66.81-1.4,1.69-2.22,2.62a33.59,33.59,0,0,1-3.1,3.1,19.07,19.07,0,0,1-3.29,2.33,9,9,0,0,1-3.16,1.1c-.67.08-1.53,0-2.38-1.42a20,20,0,0,1-2.14-5.59,47.73,47.73,0,0,1-1.09-6.81c-.19-2.29-.29-4-.29-5.19s.07-2.8.22-4.59a21.7,21.7,0,0,1,.89-4.76,9.29,9.29,0,0,1,1.93-3.5,4.56,4.56,0,0,1,3-1.49,5.66,5.66,0,0,1,3.48.6,12.88,12.88,0,0,1,3.41,2.6,17.92,17.92,0,0,1,2.69,3.68c.71,1.29,1.33,2.48,1.88,3.59-.08,2.23-.08,4.42,0,6.53s.15,4.44.15,6.73Zm1.38-19.16a12.73,12.73,0,0,1,2.05,4.67c.08.43.11.87.15,1.29a11.41,11.41,0,0,1,0,1.31,8.9,8.9,0,0,1-.24,1.27,8.47,8.47,0,0,1-.49,1.19l-.14,0a15.58,15.58,0,0,0-.68-4.68,24.3,24.3,0,0,0-1.64-4.42,16.89,16.89,0,0,0-2.77-3.89,10.56,10.56,0,0,0-3.93-2.75l0-.14a10.63,10.63,0,0,1,4.4,2.35A18,18,0,0,1,437.8,145.16Z"/><path class="cls-1" d="M474.73,76.65A40.64,40.64,0,0,1,477,88.14c.17,2.81.26,5.53.26,8.08,0,7.8-.3,15.67-.87,23.41-.52,6.9-.78,13.93-.78,20.9,0,5.64.17,11.27.5,16.72.37,6.18.56,12.47.56,18.72,0,1.86-.06,4-.17,6.59a49.84,49.84,0,0,1-1.46,10.06c-.25,1-.55,2-.88,2.95l1.23,0c1.12,0,2.31.06,3.58.16a18.72,18.72,0,0,1,4.36.86,49.63,49.63,0,0,0,.71-6.42c.11-2.57.16-4.73.16-6.59,0-6.24-.19-12.54-.56-18.72-.33-5.45-.49-11.08-.49-16.72,0-7,.25-14,.77-20.9.58-7.74.87-15.61.87-23.41,0-2.54-.09-5.27-.25-8.08a41,41,0,0,0-2.3-11.49A26.89,26.89,0,0,0,473.45,72c-.47-.35-1-.71-1.55-1.06A28,28,0,0,1,474.73,76.65Z"/><path class="cls-1" d="M322.59,243.89a41,41,0,0,0,5.49-.37h0l.14,0,0-.33c-.18-2.1-.28-4.06-.29-5.85,0-1.19,0-2.17,0-3a47.08,47.08,0,0,1-7.34,1.57h0a42.6,42.6,0,0,1-5.48.36,36,36,0,0,1-18.33-4.81,45,45,0,0,1-4.87-3.33,42.8,42.8,0,0,0,12.41,10.92A35.93,35.93,0,0,0,322.59,243.89Z"/><path class="cls-1" d="M400.44,100.19a24.15,24.15,0,0,1-.69,5.62,1.09,1.09,0,0,1,.17-.13,35.57,35.57,0,0,1,7.25-4,19.88,19.88,0,0,0-6.9-10.54,20.53,20.53,0,0,0-2.47-1.61A22.17,22.17,0,0,1,400.44,100.19Z"/><path class="cls-1" d="M243.36,253a23.26,23.26,0,0,0,3.2-.22,25.51,25.51,0,0,0,15.51-7.87,34.81,34.81,0,0,0,6.66-10.35,47.65,47.65,0,0,0,2.92-9.93,68.73,68.73,0,0,0,.94-7.11,69.85,69.85,0,0,0,.38-7.9c0-2.45,0-5.11.14-7.89v-.49c0-1.29,0-2.53.06-3.74a76.63,76.63,0,0,1-2.2-17.38c-.41-.06-.82-.13-1.22-.22L268,179.5a13,13,0,0,0-.87,1.61A20.18,20.18,0,0,0,266,184c0,.18-.14,1-.24,2.66-.13,2.15-.19,4.5-.19,7v.49c-.09,2.78-.14,5.44-.14,7.89a67.57,67.57,0,0,1-.38,7.9,68.46,68.46,0,0,1-.93,7.11,47.4,47.4,0,0,1-2.93,9.92,34.9,34.9,0,0,1-6.65,10.36A25.56,25.56,0,0,1,239,245.21a25,25,0,0,1-3.21.21,22.12,22.12,0,0,1-12.52-3.79c-.48-.33-.94-.67-1.4-1s-.7-.55-1-.84a24.34,24.34,0,0,1-13.78,6.44,25.56,25.56,0,0,1-12.82-1.51,39.12,39.12,0,0,1-18.37,7.56h0a34.92,34.92,0,0,1-4.53.3,30.23,30.23,0,0,1-18.85-6.42c-.38-.28-.75-.58-1.12-.89A46.28,46.28,0,0,1,147,241a49.72,49.72,0,0,1-6.47,10.35,27.59,27.59,0,0,1-17.8,10.26h0a20.28,20.28,0,0,1-15.47-4.24c-.58-.45-1.14-.94-1.68-1.45A29.82,29.82,0,0,1,103,258a26.3,26.3,0,0,1-12.58,5.07,25,25,0,0,1-3.21.21,22.28,22.28,0,0,1-10.65-2.67,25.49,25.49,0,0,1-16.87,9.51h0a26.33,26.33,0,0,1-18.56-4,52.71,52.71,0,0,1-16.25,4.93,33,33,0,0,1-4.42.29,31.88,31.88,0,0,1-12.26-2.43A38,38,0,0,1,0,264.26a37.88,37.88,0,0,0,3.92,4.48c.86.84,1.75,1.64,2.68,2.39a37.69,37.69,0,0,0,9.15,5.38A31.88,31.88,0,0,0,28,278.94a33.13,33.13,0,0,0,4.42-.29,52.87,52.87,0,0,0,16.25-4.93,26.34,26.34,0,0,0,18.56,4h0a25.51,25.51,0,0,0,16.88-9.51,22.22,22.22,0,0,0,10.64,2.67A25.22,25.22,0,0,0,98,270.7a26.38,26.38,0,0,0,12.58-5.06c.88-.67,1.73-1.38,2.54-2.13a2.39,2.39,0,0,1,.23.22l0,0a20.87,20.87,0,0,0,1.65,1.47,20.26,20.26,0,0,0,15.21,4h0A27.57,27.57,0,0,0,148,259a49.65,49.65,0,0,0,6.49-10.4l.24.25,0-.05a44.43,44.43,0,0,0,4.64,4.47l.87.69a30.24,30.24,0,0,0,18.6,6.22,34.92,34.92,0,0,0,4.53-.3h0a38.88,38.88,0,0,0,18.37-7.56,25.5,25.5,0,0,0,12.83,1.51,24.34,24.34,0,0,0,13.78-6.44l.25.2h0c.34.29.68.57,1,.84s.76.57,1.15.83A22.11,22.11,0,0,0,243.36,253Z"/><path class="cls-1" d="M380.93,202.32a12.37,12.37,0,0,1-7.59,4.41l-.41.07a6.57,6.57,0,0,1-5.88-2.12,7.89,7.89,0,0,1-2,4.91,21.53,21.53,0,0,1-4.79,4.13,40.29,40.29,0,0,1-5.91,3.14l-1,.43-.19-.22-.06,0c.17.21.34.43.52.63a22,22,0,0,0,5.59,4.47l.33,0a6.49,6.49,0,0,1,3.55.93,2.59,2.59,0,0,1,.89,1,21.62,21.62,0,0,0,5.52.75,21.39,21.39,0,0,0,2.87-.19l.12,0q.5-.06,1-.15c.44-.08.86-.19,1.3-.29.14-1.55.31-3.11.55-4.67a47.72,47.72,0,0,1,1.59-7,18.33,18.33,0,0,1,2.77-5.64,6.15,6.15,0,0,1,2.11-1.41,30.34,30.34,0,0,1,3.72-1.39c1.43-.44,3-.86,4.62-1.25s3.24-.71,4.77-1,2.92-.48,4.17-.65A24.37,24.37,0,0,1,402,201a4.9,4.9,0,0,1,2.13.5,5.64,5.64,0,0,1,1.07.7,5.44,5.44,0,0,1,.9.83,6.64,6.64,0,0,1,1.11,1.84,5.73,5.73,0,0,1,.4,2.14,4.66,4.66,0,0,1-.28,1.65,8.75,8.75,0,0,1-.79,1.49,10.78,10.78,0,0,1-3.17,2.3c-1.3.72-2.71,1.43-4.19,2.13a30.24,30.24,0,0,0,8.74,4.29c.41-.26.8-.51,1.16-.77,0,.37-.09.73-.13,1.09a31.37,31.37,0,0,0,8,1H417a15.74,15.74,0,0,1,1.76-6.58,27.65,27.65,0,0,1,4.47-6.5,25.6,25.6,0,0,1,6.11-4.86,13.27,13.27,0,0,1,6.69-1.9A6.72,6.72,0,0,1,440.5,202h0l.25.2a5.29,5.29,0,0,1,1.84,4.28,4.48,4.48,0,0,1-1.11,3,9.07,9.07,0,0,1-2.6,2.08q-1.35.82-2.79,1.74a17.89,17.89,0,0,0-2.63,2.09,9.28,9.28,0,0,0-1.23,1.44,40.41,40.41,0,0,0,7.53-4.44,24.52,24.52,0,0,0,6.77,1.61c0-.08,0-.17,0-.26a5.31,5.31,0,0,1,1.79-3.92,16,16,0,0,1,4.52-2.89,37.78,37.78,0,0,1,6.09-2,64.13,64.13,0,0,1,6.6-1.31c1.64-.23,3.18-.41,4.61-.55a32.21,32.21,0,0,0,3.65-7.22c-.87,0-1.84.09-3,.18-2,.14-4.17.39-6.52.72a74.35,74.35,0,0,0-7.4,1.46,44.93,44.93,0,0,0-7.35,2.49c-.31.14-.6.29-.9.44,0-.09-.1-.17-.14-.26l-.12.06a12.72,12.72,0,0,0-3.21-4.17l-.58-.46a14.52,14.52,0,0,0-6.52-2.64l.13-.13-.38-.07a38.53,38.53,0,0,1-3,2.82,25.06,25.06,0,0,1-12.86,5.83,19,19,0,0,1-4.45.06c-.13.13-.27.25-.39.39a34.26,34.26,0,0,0-2.54,3.12,13.32,13.32,0,0,0-.82-3.17,14.82,14.82,0,0,0-.69-1.45,16.33,16.33,0,0,1-4.13-2.5,32.24,32.24,0,0,1-4-4,13,13,0,0,0-3.06-.41,28.77,28.77,0,0,0-3.94.31q-2,.27-4.47.69c-1.68.29-3.43.65-5.22,1.07-1.32.31-2.56.65-3.76,1,0-.1.09-.21.13-.31l-.39.11A23.68,23.68,0,0,1,380.93,202.32Z"/><path class="cls-1" d="M472.65,267a14.5,14.5,0,0,0,3.81-5.08A20.31,20.31,0,0,0,478,257a26.7,26.7,0,0,0,.39-4.21c0-2.13,0-4.28-.11-6.38-.08-1.87-.11-3.78-.1-5.69,0-3.68.16-7.4.4-11,.14-2,.3-4,.48-6.06a33.66,33.66,0,0,0,4.4-2,22.84,22.84,0,0,0,5.37-4.08,12.61,12.61,0,0,0,3.68-8.76,12,12,0,0,0-2.87-8.14A12.45,12.45,0,0,0,488,199a13.7,13.7,0,0,0-3.52-2c-.27-.1-.54-.18-.81-.27,0,0,0-.07,0-.11l-.27-.09c-.21,1.22-.45,2.44-.75,3.64s-.6,2.18-1,3.23a1.17,1.17,0,0,1,.2.06,6,6,0,0,1,1.86,1.1,5.43,5.43,0,0,1,.75.69,4.27,4.27,0,0,1,.91,2.93,4.82,4.82,0,0,1-1.49,3.4,14.69,14.69,0,0,1-3.54,2.67,25.37,25.37,0,0,1-4.25,1.88,32.69,32.69,0,0,1-3.6,1q-.64,5.76-1,11.49c-.26,3.83-.4,7.66-.42,11.51,0,2.05,0,4.07.1,6.07s.12,4,.11,6a18.13,18.13,0,0,1-.29,3,12.25,12.25,0,0,1-.92,3,6.63,6.63,0,0,1-1.78,2.38,4,4,0,0,1-2.78,1,4.48,4.48,0,0,1-3-1,4.23,4.23,0,0,1-.41-.33,7.41,7.41,0,0,1-1.78-2.67,13.26,13.26,0,0,1-.83-3.35,25,25,0,0,1-.21-3.18q-.12-4.5-.16-9c0-3,0-6.06,0-9.11q0-3.81.09-7.49c0-1.21,0-2.43,0-3.66a25.27,25.27,0,0,1-11.7-1.62,44.21,44.21,0,0,1-4.71,3,15.52,15.52,0,0,0,3.83,2.07,21,21,0,0,0,4.33,1.09v.15l.25.05c0,2.34-.06,4.73-.08,7.17q0,4.64,0,9.23t.16,9a32.32,32.32,0,0,0,.25,4,21.16,21.16,0,0,0,1.33,5.29,15.23,15.23,0,0,0,3.66,5.46c.23.21.48.43.76.66a12.23,12.23,0,0,0,7.4,2.39A11.8,11.8,0,0,0,472.65,267Z"/><path class="cls-1" d="M428.78,268.3a28.08,28.08,0,0,0,6-3.89,38.6,38.6,0,0,0,4.91-5,39.23,39.23,0,0,0,4-5.72,35.63,35.63,0,0,0,2.79-6.1,21.24,21.24,0,0,0,.05-14.13,25.71,25.71,0,0,0-2.64-5.3,28.25,28.25,0,0,0-3.13-3.88,38.88,38.88,0,0,1-7.17,2.58l.2.22c.59.65,1.2,1.32,1.88,2a19.72,19.72,0,0,1,2.38,2.94,17,17,0,0,1,1.81,3.65,13.64,13.64,0,0,1,.72,4.73,13.78,13.78,0,0,1-.82,4.23,27.65,27.65,0,0,1-2.17,4.74,32.63,32.63,0,0,1-3.22,4.63,31.51,31.51,0,0,1-3.93,4,20.57,20.57,0,0,1-4.33,2.82,10,10,0,0,1-4.36,1.05,7,7,0,0,1-4.11-1.3l-.2-.17-.06,0a4.4,4.4,0,0,1-1.77-3.84,6.36,6.36,0,0,1,.85-3.18,16.55,16.55,0,0,1,2.05-2.8,27.65,27.65,0,0,1,2.68-2.6,34.41,34.41,0,0,0,2.67-2.53,14.84,14.84,0,0,0,2.05-2.65,5.66,5.66,0,0,0,.84-2.95,8,8,0,0,0-1.5-4.47c-1-1.53-2.14-3.12-3.38-4.75-.74-1-1.42-2-2.08-3a30.14,30.14,0,0,1-14.83-6.72,46.73,46.73,0,0,1-3.72-3.47,35.54,35.54,0,0,1-3.47,5.11l.67,0a5.69,5.69,0,0,1,3.75,1.14c1.21.86,1.8,2.31,1.79,4.35a5,5,0,0,1-.51,2.24,6.18,6.18,0,0,1-1.28,1.72,9,9,0,0,1-1.81,1.3l-2,1.07a37,37,0,0,1-5,2.17c-1.76.62-3.51,1.22-5.27,1.8-.1.4-.2.84-.3,1.31a6.18,6.18,0,0,0-.16,1.39,14.8,14.8,0,0,0,.13,2.1c.08.61.16,1.22.25,1.83l2.67-.88c1.33-.45,2.72-.88,4.17-1.32s2.86-.82,4.21-1.13a14.34,14.34,0,0,1,3-.47,4.71,4.71,0,0,1,2.1.5,5.9,5.9,0,0,1,1,.67,4.89,4.89,0,0,1,.88.82A6.56,6.56,0,0,1,407.1,245a5.83,5.83,0,0,1,.39,2.11,5.51,5.51,0,0,1-.77,2.76,10.72,10.72,0,0,1-3.54,3A56.29,56.29,0,0,1,397,256q-3.39,1.51-6.54,2.58a16.06,16.06,0,0,1-4.66,1.05,7.72,7.72,0,0,1-2.47-.5,20.73,20.73,0,0,1-2.84-1.26,14.75,14.75,0,0,1-2.17-1.42c-.22-.17-.45-.34-.66-.52a7.49,7.49,0,0,1-1.67-1.89,7.25,7.25,0,0,1-.55-2.1c-.17-1-.31-2.28-.42-3.68s-.22-2.89-.31-4.46-.16-3.08-.23-4.5-.1-2.69-.12-3.79,0-1.9,0-2.4c0-.23,0-.48,0-.72a20.89,20.89,0,0,1-9.92-4.18h0a6.62,6.62,0,0,1-1.49,2.61,19.15,19.15,0,0,1-4.26,3.42,33.2,33.2,0,0,1-5.2,2.51q-2.7,1-4.58,1.61c0,1.65,0,3.29-.11,4.91s-.15,3.24-.26,4.84c-.06.79-.15,1.79-.28,3a16.89,16.89,0,0,1-.78,3.48,8.93,8.93,0,0,1-1.63,2.92,3.4,3.4,0,0,1-2.71,1.21,3,3,0,0,1-1.95-.75,4.09,4.09,0,0,1-1-1,14.11,14.11,0,0,1-1.89-3.95,36.43,36.43,0,0,1-1.23-5.37q-.46-3-.71-5.82c0-.07,0-.12,0-.19a48.43,48.43,0,0,1-8.12,1.82,1.79,1.79,0,0,1,0,.23h.09l.15,0c.17,2,.42,4,.74,6a43.9,43.9,0,0,0,1.51,6.53,21.47,21.47,0,0,0,3,6.13,12.12,12.12,0,0,0,2.24,2.38,10.6,10.6,0,0,0,6.46,2.21,11.18,11.18,0,0,0,8.68-3.93,16.55,16.55,0,0,0,3.09-5.47,23.93,23.93,0,0,0,1.14-5.14c.15-1.32.25-2.42.32-3.32.1-1.56.19-3.14.25-4.73a40.62,40.62,0,0,0,6.11-3,27.83,27.83,0,0,0,4.22-3.1c0,.13,0,.27,0,.4l.25-.2c0,.63,0,1.3.08,2,.06,1.45.14,3,.23,4.57s.2,3.2.32,4.67.29,3,.49,4.26a13.58,13.58,0,0,0,1.48,4.75,14.75,14.75,0,0,0,3.38,3.94c.24.21.49.4.74.6a23.12,23.12,0,0,0,3,1.89A28.48,28.48,0,0,0,380.1,267a15.36,15.36,0,0,0,5,.94,22.07,22.07,0,0,0,7.2-1.46c2.32-.78,4.75-1.74,7.23-2.84a63.7,63.7,0,0,0,7.06-3.69c.36-.22.65-.43,1-.65,0,.11.05.22.07.33l.19-.13a11.83,11.83,0,0,0,4.62,7.9,14.81,14.81,0,0,0,8.58,2.75A17.63,17.63,0,0,0,428.78,268.3ZM413.7,242.61a14.12,14.12,0,0,0-2.39-4.06,12.84,12.84,0,0,0-2.72-2.43,14.92,14.92,0,0,0,1.16-1.89,12.63,12.63,0,0,0,1.28-4.69c.12.22.21.45.35.67a60.14,60.14,0,0,0,3.86,5.75c1.11,1.46,2.12,2.88,3,4.23l-.45.5c-.63.66-1.35,1.33-2.12,2-.53.45-1,.92-1.52,1.39A13.9,13.9,0,0,0,413.7,242.61Z"/><path class="cls-1" d="M346.75,198.78a45.06,45.06,0,0,1-5.49,7.77l.53-.29a45.66,45.66,0,0,1,7-2.79,73.94,73.94,0,0,1,7.47-2,28.39,28.39,0,0,1,5.59-.75,12.68,12.68,0,0,1,1.76.13,4.94,4.94,0,0,1,1.1.29,24.06,24.06,0,0,1-1.31-3.06,39.9,39.9,0,0,1-1.19-4.3,33.72,33.72,0,0,0-7.69.9c-2,.41-4,.92-6.05,1.51.05-.1.09-.21.14-.31l-.4.11C347.71,197,347.24,197.88,346.75,198.78Z"/><path class="cls-1" d="M328.82,216.39c-.12,1.58-.22,3.25-.31,5s-.15,3.48-.19,5.09l-.11,4.22q0,2-.06,3V234a44.45,44.45,0,0,0,8-3.32c0-.2,0-.4,0-.63,0-1.27.07-2.68.1-4.23s.1-3.18.19-4.87.18-3.31.3-4.84.25-2.87.44-4a14.58,14.58,0,0,1,.38-1.82c-.44.39-.88.77-1.33,1.14a29.22,29.22,0,0,1-7.64,4.45c0,.1,0,.2,0,.3l.28-.1Z"/><path class="cls-1" d="M366.37,202.43a3.2,3.2,0,0,1,.44,1.8v.06c.08.1.16.21.25.31s0,.05,0,.08a6.57,6.57,0,0,0,5.88,2.12l.41-.07a12.37,12.37,0,0,0,7.59-4.41,23.68,23.68,0,0,0,3.28-5.37l-1.36.39a36.43,36.43,0,0,0-4.73,1.79,13.72,13.72,0,0,0-4.26,2.92,10.39,10.39,0,0,0-1.38-3.27,10.93,10.93,0,0,0-4.18-3.71,12.51,12.51,0,0,0-2.89-1c0,.39,0,.78,0,1.17l-.19,0c-.06-.43-.1-.85-.16-1.27-.27-.06-.54-.11-.82-.15-.63-.09-1.26-.14-1.9-.17l0,.18h-.21a39.9,39.9,0,0,0,1.19,4.3,24.06,24.06,0,0,0,1.31,3.06,4.5,4.5,0,0,1,.51.2A3.13,3.13,0,0,1,366.37,202.43Z"/><path class="cls-1" d="M407.12,195.19a12.11,12.11,0,0,0-2.22-.82,1.83,1.83,0,0,0,.13.16l-.11,0a32.24,32.24,0,0,0,4,4,16.33,16.33,0,0,0,4.13,2.5,14.39,14.39,0,0,0-1.73-2.56A13.14,13.14,0,0,0,407.12,195.19Z"/><path class="cls-1" d="M425.08,196.16a32.9,32.9,0,0,0-7.59,6,19,19,0,0,0,4.45-.06,25.06,25.06,0,0,0,12.86-5.83,38.53,38.53,0,0,0,3-2.82,15.07,15.07,0,0,0-2.14-.17A20.85,20.85,0,0,0,425.08,196.16Z"/><path class="cls-1" d="M374.8,224.22c-.44.1-.86.21-1.3.29s-.66.11-1,.15l-.12,0a21.39,21.39,0,0,1-2.87.19,21.62,21.62,0,0,1-5.52-.75s0,.09.07.14l.19.06a4.29,4.29,0,0,1,.47,2.14,6.21,6.21,0,0,1-.29,1.79,20.89,20.89,0,0,0,9.92,4.18c0-1.68.1-3.55.22-5.65C374.63,225.93,374.72,225.07,374.8,224.22Z"/><path class="cls-1" d="M417,220.42c0-.06,0-.13,0-.19h-.12a31.37,31.37,0,0,1-8-1c0,.45-.07.91-.09,1.37a11.19,11.19,0,0,0-1.22-1.51l.28-.18a30.24,30.24,0,0,1-8.74-4.29h0c-.34.16-.66.33-1,.49q-2.82,1.29-5.41,2.32L389,218.91q-.31,1.72-.66,3.48a32,32,0,0,0-.47,3.22,42.38,42.38,0,0,1,5-2.07,16.71,16.71,0,0,1,4.89-1,35.54,35.54,0,0,0,3.47-5.11,46.73,46.73,0,0,0,3.72,3.47,30.14,30.14,0,0,0,14.83,6.72c-.45-.68-.89-1.35-1.29-2A9.87,9.87,0,0,1,417,220.42Z"/><path class="cls-1" d="M351.48,218.09l-.65.26q-.88,1.08-1.83,2.1c0,.17,0,.34,0,.51,0,.45,0,.88,0,1.34-.05,1-.13,2-.22,3a47.49,47.49,0,0,1,5.13-2.08,17.71,17.71,0,0,1,5.38-1,22,22,0,0,1-5.59-4.47c-.18-.2-.35-.42-.52-.63l-1.26.53C351.74,217.78,351.61,217.93,351.48,218.09Z"/><path class="cls-1" d="M475.42,195.55l-1.23,0a1.72,1.72,0,0,1-.07.21h-.34a32.21,32.21,0,0,1-3.65,7.22l1.4-.11c1.82-.14,3.23-.2,4.23-.2s2,.05,3,.14a10.48,10.48,0,0,1,2.83.6c.38-1.05.7-2.13,1-3.23s.54-2.42.75-3.64a18.72,18.72,0,0,0-4.36-.86C477.73,195.61,476.54,195.56,475.42,195.55Z"/><path class="cls-1" d="M336.09,233c0-.54,0-1.3,0-2.26a44.45,44.45,0,0,1-8,3.32v.28l-.26.07c0,.79,0,1.77,0,3,0,1.79.11,3.75.29,5.85l0,.33a48.43,48.43,0,0,0,8.12-1.82c-.15-1.82-.24-3.51-.25-5.06S336.08,233.8,336.09,233Z"/><path class="cls-1" d="M457.43,218.36c-.73,0-1.47.06-2.22.06a21.07,21.07,0,0,1-2.36-.2,13.83,13.83,0,0,1-2.8-.7,7,7,0,0,1-2-1.13,4.61,4.61,0,0,1-.55-.44,2.82,2.82,0,0,1-.94-2,24.52,24.52,0,0,1-6.77-1.61,40.41,40.41,0,0,1-7.53,4.44l-.31.45c-.14.23-.31.44-.43.68a6.65,6.65,0,0,0-.77,3.21,5.53,5.53,0,0,0,.72,2.86,17,17,0,0,0,1.82,2.52l.3.34a38.88,38.88,0,0,0,7.17-2.58l-.2-.22c-.74-.75-1.42-1.48-2-2.2-.12-.14-.23-.27-.33-.41l0,0a9.49,9.49,0,0,1,1.49-1.17l.28-.18a10.72,10.72,0,0,0,1.92,2.3c.31.28.64.54,1,.8a44.21,44.21,0,0,0,4.71-3,25.27,25.27,0,0,0,11.7,1.62c0-1.19,0-2.4,0-3.61C458.69,218.26,458.06,218.32,457.43,218.36Z"/><path class="cls-1" d="M341.29,206.51a44.1,44.1,0,0,0,5.48-7.77c.5-.9,1-1.82,1.43-2.76-.72.21-1.45.43-2.17.66a53.86,53.86,0,0,0-8.15,3.28c-3.62,1.85-6,4-7.36,6.64l-.14.28a17.28,17.28,0,0,0-1.27,4.63c-.21,1.29-.37,2.75-.49,4.34a29,29,0,0,0,7.63-4.45c.46-.37.9-.75,1.34-1.14a5.46,5.46,0,0,1,.27-.76A8,8,0,0,1,341.29,206.51Z"/></g></g></svg>